<svg xmlns="http://www.w3.org/2000/svg" width="28" height="27" viewBox="0 0 28 27">
  <metadata><?xpacket begin="﻿" id="W5M0MpCehiHzreSzNTczkc9d"?>
<x:xmpmeta xmlns:x="adobe:ns:meta/" x:xmptk="Adobe XMP Core 5.6-c138 79.159824, 2016/09/14-01:09:01        ">
   <rdf:RDF xmlns:rdf="http://www.w3.org/1999/02/22-rdf-syntax-ns#">
      <rdf:Description rdf:about=""/>
   </rdf:RDF>
</x:xmpmeta>
                                                                                                    
                                                                                                    
                                                                                                    
                                                                                                    
                                                                                                    
                                                                                                    
                                                                                                    
                                                                                                    
                                                                                                    
                                                                                                    
                                                                                                    
                                                                                                    
                                                                                                    
                                                                                                    
                                                                                                    
                                                                                                    
                                                                                                    
                                                                                                    
                                                                                                    
                                                                                                    
                           
<?xpacket end="w"?></metadata>
<defs>
    <style>
      .cls-1 {
        fill: #285bd0;
        fill-rule: evenodd;
      }
    </style>
  </defs>
  <path class="cls-1" d="M543.642,11612.2a1.144,1.144,0,0,0-1.131,1.2v1.1a11.083,11.083,0,0,1-3.262,7.9,10.692,10.692,0,0,1-7.862,3.3H531.38a11.2,11.2,0,0,1-7.855-19.1,10.692,10.692,0,0,1,7.862-3.3h0.006a10.166,10.166,0,0,1,4.522,1,1.268,1.268,0,0,0,1.493-.6,1.111,1.111,0,0,0-.573-1.5,12.825,12.825,0,0,0-5.44-1.2h-0.008a13.391,13.391,0,0,0-9.461,3.9,13.7,13.7,0,0,0-3.926,9.6,13.281,13.281,0,0,0,3.916,9.5,13.076,13.076,0,0,0,9.463,4h0.008a13.076,13.076,0,0,0,9.46-4,13.294,13.294,0,0,0,3.926-9.5v-1.1A1.144,1.144,0,0,0,543.642,11612.2Zm2.026-9.6a1.041,1.041,0,0,0-1.6,0l-12.681,12.8-2.877-2.9a1.041,1.041,0,0,0-1.6,0,1.131,1.131,0,0,0,0,1.6l3.677,3.7a1.217,1.217,0,0,0,1.6,0l13.481-13.6A1.131,1.131,0,0,0,545.668,11602.6Z" transform="translate(-518 -11601)"/>
</svg>
